 http://img16.imageshack.us/img16/8109/afficheengcal800x600.jpg

Country.......: France
Genre.........: Drama, Comedy, Romance
Date release..: 15.08.2010 [World]
Director......: Claude Lelouch
Writers.......: Claude Lelouch, Pierre Uytterhoeven
Duration......: 115 min.
More..........: http://www.imdb.com/title/tt1440146
Trailer.......:

Pilot :
Image for amorous games, full of musical songs. The heroes fall in love and out of love over the decades - from 1946 until 2010.

Cats :
Audrey Dana   	 ...  	Ilva Lemoine
Dominique Pinon 	... 	Maurice Lemoine, le projectionniste
Raphael 	... 	Le premier et dernier Amour
Samuel Labarthe 	... 	Horst, le bel Allemand
Laurent Couson 	... 	Simon, le pianiste avocat
Jacky Ido 	... 	Bob, le boxeur
Gilles Lemaire 	... 	Jim Singer
Judith Magre 	... 	La mere du pianiste
Liane Foly 	... 	La chanteuse des rues
Massimo Ranieri 	... 	Le chanteur du camp
Zinedine Soualem 	... 	L accordeoniste
Charles Denner 	... 	Le pere de Simon (archive footage)
Anouk Aimee 	... 	Madame Blum
Salome Lelouch 	... 	Salome Blum
Sabaya Lelouch 	... 	Sabaya Blum 

Data Technical :
!!! SAMPLE !!!
Audio.....: French
Subtitles.: English .sub
Format                           : AVI
Format/Info                      : Audio Video Interleave
File size                        : 700 MiB
Duration                         : 1h 54mn
Overall bit rate                 : 853 Kbps
Writing application              : VirtualDubMod 1.5.10.2 (build 2540/release)
Writing library                  : VirtualDubMod build 2540/release
Video
ID                               : 0
Format                           : MPEG-4 Visual
Format profile                   : Advanced Simple@L5
Format settings, BVOP            : Yes
Format settings, QPel            : No
Format settings, GMC             : No warppoints
Format settings, Matrix          : Default (H.263)
Codec ID                         : XVID
Codec ID/Hint                    : XviD
Duration                         : 1h 54mn
Bit rate                         : 718 Kbps
Width                            : 640 pixels
Height                           : 272 pixels
Display aspect ratio             : 2.35:1
Frame rate                       : 25.000 fps
Color space                      : YUV
Chroma subsampling               : 4:2:0
Bit depth                        : 8 bits
Scan type                        : Progressive
Bits/(Pixel*Frame)               : 0.165
Stream size                      : 589 MiB (84%)
Writing library                  : XviD 1.2.1 (UTC 2008-12-04)
Audio
ID                               : 1
Format                           : MPEG Audio
Format version                   : Version 1
Format profile                   : Layer 3
Mode                             : Joint stereo
Mode extension                   : MS Stereo
Codec ID                         : 55
Codec ID/Hint                    : MP3
Duration                         : 1h 54mn
Bit rate mode                    : Variable
Bit rate                         : 128 Kbps
Channel(s)                       : 2 channels
Sampling rate                    : 48.0 KHz
Stream size                      : 100 MiB (14%)
Alignment                        : Aligned on interleaves
Interleave, duration             : 24 ms (0.60 video frame)
Interleave, preload duration     : 383 ms
Writing library                  : LAME3.98 
Encoding settings                : -m j -V 4 -q 3 -lowpass 17 --abr 128

Screen : 
http://img42.imageshack.us/img42/2861/whatlovemaybring2010s1.jpg 
http://img218.imageshack.us/img218/8965/whatlovemaybring2010s2.jpg 
http://img703.imageshack.us/img703/2787/whatlovemaybring2010s3.jpg 
http://img593.imageshack.us/img593/1958/whatlovemaybring2010s4.jpg 
http://img703.imageshack.us/img703/6487/whatlovemaybring2010s5.jpg